<svg width="500" height="500" viewBox="0 0 500 500" fill="none" xmlns="http://www.w3.org/2000/svg">
<path d="M0 250C0 111.929 111.929 0 250 0C388.071 0 500 111.929 500 250C500 388.071 388.071 500 250 500C111.929 500 0 388.071 0 250Z" fill="#FEA897"/>
<path d="M303.796 93.7536C304.719 90.3267 309.57 90.2978 310.534 93.7135L341.78 204.496C342.113 205.676 343.041 206.596 344.224 206.918L453.163 236.631C456.603 237.569 456.595 242.45 453.152 243.377L342.66 273.126C341.458 273.45 340.518 274.39 340.195 275.592L310.467 386.003C309.538 389.451 304.646 389.451 303.718 386.003L273.99 275.592C273.666 274.39 272.726 273.45 271.524 273.126L161.113 243.398C157.664 242.47 157.664 237.578 161.113 236.649L271.524 206.921C272.726 206.598 273.666 205.658 273.99 204.455L303.796 93.7536Z" fill="#F9F9F9"/>
<path d="M183.633 292.585C184.561 289.137 189.453 289.137 190.382 292.585L201.429 333.615C201.753 334.817 202.692 335.757 203.895 336.081L244.924 347.128C248.372 348.056 248.372 352.948 244.924 353.877L203.895 364.924C202.692 365.248 201.753 366.187 201.429 367.39L190.382 408.419C189.453 411.868 184.561 411.868 183.633 408.419L172.586 367.39C172.262 366.187 171.322 365.248 170.12 364.924L129.09 353.877C125.642 352.948 125.642 348.056 129.09 347.128L170.12 336.081C171.322 335.757 172.262 334.817 172.586 333.615L183.633 292.585Z" fill="#F9F9F9"/>
<path d="M122.79 84.4373C123.718 80.9892 128.61 80.9892 129.539 84.4373L140.586 125.467C140.91 126.67 141.849 127.609 143.052 127.933L184.081 138.98C187.529 139.908 187.529 144.8 184.081 145.729L143.052 156.776C141.849 157.1 140.91 158.039 140.586 159.242L129.539 200.271C128.61 203.72 123.718 203.72 122.79 200.272L111.743 159.242C111.419 158.039 110.479 157.1 109.277 156.776L68.2471 145.729C64.799 144.8 64.799 139.908 68.2471 138.98L109.277 127.933C110.479 127.609 111.419 126.67 111.743 125.467L122.79 84.4373Z" fill="#F9F9F9"/>
</svg>
