<svg width="919" height="881" viewBox="0 0 919 881" fill="none" xmlns="http://www.w3.org/2000/svg">
<mask id="path-1-inside-1_7_27" fill="white">
<path fill-rule="evenodd" clip-rule="evenodd" d="M440.469 765.938C260.717 765.938 115 620.221 115 440.469C115 260.717 260.717 115 440.469 115C620.221 115 765.938 260.717 765.938 440.469C765.938 620.221 620.221 765.938 440.469 765.938ZM440.469 880.938C197.205 880.938 0 683.734 0 440.469C0 197.205 197.205 0 440.469 0C683.734 0 880.938 197.205 880.938 440.469C880.938 533.083 852.355 619.022 803.528 689.943L914.816 848.089C923.17 859.961 914.756 876.331 900.239 876.447L471.371 879.871C461.162 880.579 450.858 880.938 440.469 880.938Z"/>
</mask>
<path fill-rule="evenodd" clip-rule="evenodd" d="M440.469 765.938C260.717 765.938 115 620.221 115 440.469C115 260.717 260.717 115 440.469 115C620.221 115 765.938 260.717 765.938 440.469C765.938 620.221 620.221 765.938 440.469 765.938ZM440.469 880.938C197.205 880.938 0 683.734 0 440.469C0 197.205 197.205 0 440.469 0C683.734 0 880.938 197.205 880.938 440.469C880.938 533.083 852.355 619.022 803.528 689.943L914.816 848.089C923.17 859.961 914.756 876.331 900.239 876.447L471.371 879.871C461.162 880.579 450.858 880.938 440.469 880.938Z" fill="#F5F5F5"/>
<path d="M803.528 689.943L803.116 689.66L802.919 689.947L803.119 690.231L803.528 689.943ZM914.816 848.089L914.407 848.377L914.816 848.089ZM900.239 876.447L900.235 875.947L900.239 876.447ZM471.371 879.871L471.367 879.371L471.352 879.371L471.336 879.372L471.371 879.871ZM114.5 440.469C114.5 620.497 260.441 766.438 440.469 766.438V765.438C260.994 765.438 115.5 619.945 115.5 440.469H114.5ZM440.469 114.5C260.441 114.5 114.5 260.441 114.5 440.469H115.5C115.5 260.994 260.994 115.5 440.469 115.5V114.5ZM766.438 440.469C766.438 260.441 620.497 114.5 440.469 114.5V115.5C619.945 115.5 765.438 260.994 765.438 440.469H766.438ZM440.469 766.438C620.497 766.438 766.438 620.497 766.438 440.469H765.438C765.438 619.945 619.945 765.438 440.469 765.438V766.438ZM-0.5 440.469C-0.5 684.01 196.929 881.438 440.469 881.438V880.438C197.481 880.438 0.5 683.457 0.5 440.469H-0.5ZM440.469 -0.5C196.929 -0.5 -0.5 196.929 -0.5 440.469H0.5C0.5 197.481 197.481 0.5 440.469 0.5V-0.5ZM881.438 440.469C881.438 196.929 684.01 -0.5 440.469 -0.5V0.5C683.457 0.5 880.438 197.481 880.438 440.469H881.438ZM803.94 690.227C852.822 619.225 881.438 533.188 881.438 440.469H880.438C880.438 532.979 851.887 618.819 803.116 689.66L803.94 690.227ZM803.119 690.231L914.407 848.377L915.225 847.801L803.937 689.656L803.119 690.231ZM914.407 848.377C922.529 859.919 914.348 875.835 900.235 875.947L900.243 876.947C915.163 876.828 923.811 860.003 915.225 847.801L914.407 848.377ZM900.235 875.947L471.367 879.371L471.375 880.371L900.243 876.947L900.235 875.947ZM440.469 881.438C450.869 881.438 461.185 881.078 471.405 880.37L471.336 879.372C461.139 880.079 450.846 880.438 440.469 880.438V881.438Z" fill="#FFFFFA" mask="url(#path-1-inside-1_7_27)"/>
<path fill-rule="evenodd" clip-rule="evenodd" d="M132.137 445.363C132.137 615.648 270.18 753.692 440.465 753.692C610.751 753.692 748.794 615.648 748.794 445.363C748.794 275.078 610.751 137.035 440.465 137.035C270.18 137.035 132.137 275.078 132.137 445.363ZM102.772 445.363C102.772 631.866 253.963 783.056 440.465 783.056C626.968 783.056 778.158 631.866 778.158 445.363C778.158 258.861 626.968 107.67 440.465 107.67C253.963 107.67 102.772 258.861 102.772 445.363Z" fill="#F05454"/>
</svg>
