<svg width="542" height="419" viewBox="0 0 542 419" fill="none" xmlns="http://www.w3.org/2000/svg">
<path d="M172.862 415.541L84.4865 190.548L1.60447 415.507C-7.36904 418.54 86.5704 182.653 84.4026 182.375C83.0446 185.526 181.625 416.55 172.862 415.541Z" fill="white" stroke="#020000" stroke-linecap="round" stroke-linejoin="round"/>
<path d="M349.3 255.476H333.557V401.614H349.3V255.476Z" fill="white"/>
<mask id="mask0_33_618" style="mask-type:luminance" maskUnits="userSpaceOnUse" x="333" y="255" width="17" height="147">
<path d="M349.3 255.476H333.557V401.614H349.3V255.476Z" fill="white"/>
</mask>
<g mask="url(#mask0_33_618)">
<path d="M312.215 263.598C349.3 261.354 351.352 292.124 351.352 292.124L358.083 242.445L311.239 247.573" fill="#EFF1F7"/>
</g>
<path d="M349.3 255.476H333.557V401.614H349.3V255.476Z" stroke="#020000" stroke-linecap="round" stroke-linejoin="round"/>
<path d="M293.677 406.428C296.874 404.352 394.111 410.907 392.378 403.282C391.181 396.966 367.723 401.356 340.292 400.125C313.992 401.266 280.209 396.086 293.677 406.428Z" fill="white" stroke="#020000" stroke-linecap="round" stroke-linejoin="round"/>
<path d="M263.619 258.659C263.731 258.645 407.133 258.67 418.542 258.659C425.355 232.423 386.751 245.417 334.549 242.48C291.131 244.668 260.038 233.773 263.619 258.659Z" fill="white"/>
<mask id="mask1_33_618" style="mask-type:luminance" maskUnits="userSpaceOnUse" x="263" y="241" width="157" height="18">
<path d="M263.619 258.659C263.731 258.645 407.133 258.67 418.542 258.659C425.355 232.423 386.751 245.417 334.549 242.48C291.131 244.668 260.038 233.773 263.619 258.659Z" fill="white"/>
</mask>
<g mask="url(#mask1_33_618)">
<path d="M299.359 275.383C369.386 258.659 381.01 231.091 381.01 231.091C316.021 229.503 323.72 232.04 278.857 252.423C274.747 247.205 277.822 276.492 276.672 280.396L307.871 277.932" fill="#EFF1F7"/>
</g>
<path d="M263.619 258.659C263.731 258.645 407.133 258.67 418.542 258.659C425.355 232.423 386.751 245.417 334.549 242.48C291.131 244.668 260.038 233.773 263.619 258.659Z" stroke="#020000" stroke-linecap="round" stroke-linejoin="round"/>
<path d="M136.959 352.445C106.666 422.874 131.996 406.784 53.8238 408.587C49.1071 408.644 51.2504 408.732 50.3312 405.128C49.5103 399.679 62.0976 393.324 87.206 393.197C113.071 335.272 97.8138 347.01 136.959 352.445Z" fill="white"/>
<mask id="mask2_33_618" style="mask-type:luminance" maskUnits="userSpaceOnUse" x="50" y="347" width="87" height="62">
<path d="M136.959 352.445C106.666 422.874 131.996 406.784 53.8238 408.587C49.1071 408.644 51.2504 408.732 50.3312 405.128C49.5103 399.679 62.0976 393.324 87.206 393.197C113.071 335.272 97.8138 347.01 136.959 352.445Z" fill="white"/>
</mask>
<g mask="url(#mask2_33_618)">
<path d="M118.956 404.303H46.1121V416.413H118.956V404.303Z" fill="white" stroke="#020000" stroke-linecap="round" stroke-linejoin="round"/>
</g>
<path d="M136.959 352.445C106.666 422.874 131.996 406.784 53.8238 408.587C49.1071 408.644 51.2504 408.732 50.3312 405.128C49.5103 399.679 62.0976 393.324 87.206 393.197C113.071 335.272 97.8138 347.01 136.959 352.445Z" stroke="#020000" stroke-linecap="round" stroke-linejoin="round"/>
<path d="M302.79 25.6957C302.781 26.5134 302.936 27.3247 303.247 28.0828C303.558 28.8409 304.019 29.5306 304.602 30.1121C305.186 30.6936 305.881 31.1552 306.646 31.4703C307.412 31.7854 308.234 31.9476 309.064 31.9476C309.894 31.9476 310.715 31.7854 311.481 31.4703C312.247 31.1552 312.942 30.6936 313.525 30.1121C314.109 29.5306 314.569 28.8409 314.88 28.0828C315.191 27.3247 315.347 26.5134 315.337 25.6957C315.347 24.8781 315.191 24.0668 314.88 23.3087C314.569 22.5506 314.109 21.8609 313.525 21.2794C312.942 20.6979 312.247 20.2363 311.481 19.9212C310.715 19.6061 309.894 19.4439 309.064 19.4439C308.234 19.4439 307.412 19.6061 306.646 19.9212C305.881 20.2363 305.186 20.6979 304.602 21.2794C304.019 21.8609 303.558 22.5506 303.247 23.3087C302.936 24.0668 302.781 24.8781 302.79 25.6957Z" stroke="#020000" stroke-linecap="round" stroke-linejoin="round"/>
<path d="M170.205 370.03C150.592 383.136 92.392 367.74 104.991 333.319C121.48 291.6 134.341 218.454 156.896 216.797C273.171 182.186 239.982 182.716 317.53 197.943C318.276 193.153 324.644 249.276 325.251 250.084L192.258 258.731C192.258 258.731 189.819 356.924 170.205 370.03Z" fill="white"/>
<mask id="mask3_33_618" style="mask-type:luminance" maskUnits="userSpaceOnUse" x="103" y="188" width="223" height="187">
<path d="M170.205 370.03C150.592 383.136 92.392 367.74 104.991 333.319C121.48 291.6 134.341 218.454 156.896 216.797C273.171 182.186 239.982 182.716 317.53 197.943C318.276 193.153 324.644 249.276 325.251 250.084L192.258 258.731C192.258 258.731 189.819 356.924 170.205 370.03Z" fill="white"/>
</mask>
<g mask="url(#mask3_33_618)">
<path d="M174.744 205.817C280.088 190.913 278.109 200.836 278.109 200.836L333.146 195.957L310.689 182.013" fill="#ECECEC"/>
<path d="M155.346 225.823C143.851 252.046 118.477 243.789 125.175 217.91C134.882 185.703 166.684 196.578 155.346 225.823Z" fill="#ECECEC"/>
<path d="M145.613 383.136L175.476 245.489C175.476 245.489 229.912 252.701 248.454 232.028" stroke="#020000" stroke-linecap="round" stroke-linejoin="round"/>
<path d="M186.333 325.839C186.333 325.839 174.744 237.59 193.6 220.386C199.755 214.769 286.246 196.859 286.246 196.859L278.402 234.902L210.676 281.194" fill="#ECECEC"/>
</g>
<path d="M170.205 370.03C150.592 383.136 92.392 367.74 104.991 333.319C121.48 291.6 134.341 218.454 156.896 216.797C273.171 182.186 239.982 182.716 317.53 197.943C318.276 193.153 324.644 249.276 325.251 250.084L192.258 258.731C192.258 258.731 189.819 356.924 170.205 370.03Z" stroke="#020000" stroke-linecap="round" stroke-linejoin="round"/>
<path d="M307.871 85.2336C293.04 86.6946 301.561 67.0281 301.561 67.0281C301.561 67.0281 301.649 18.4148 301.561 17.7581C320.818 29.4109 318.507 29.0977 327.89 53.2374C336.758 70.7698 332.721 75.4269 307.871 85.2336Z" fill="white"/>
<mask id="mask4_33_618" style="mask-type:luminance" maskUnits="userSpaceOnUse" x="299" y="17" width="34" height="69">
<path d="M307.871 85.2336C293.04 86.6946 301.561 67.0281 301.561 67.0281C301.561 67.0281 301.649 18.4148 301.561 17.7581C320.818 29.4109 318.507 29.0977 327.89 53.2374C336.758 70.7698 332.721 75.4269 307.871 85.2336Z" fill="white"/>
</mask>
<g mask="url(#mask4_33_618)">
<path d="M296.603 69.432C295.385 72.3839 318.828 57.2516 306.832 50.5666C294.015 51.3894 298.845 63.5112 296.603 69.432Z" fill="#EFF1F7"/>
</g>
<path d="M307.871 85.2336C293.04 86.6946 301.561 67.0281 301.561 67.0281C301.561 67.0281 301.649 18.4148 301.561 17.7581C320.818 29.4109 318.507 29.0977 327.89 53.2374C336.758 70.7698 332.721 75.4269 307.871 85.2336Z" stroke="#020000" stroke-linecap="round" stroke-linejoin="round"/>
<path d="M196.918 96.8094C196.978 96.6961 237.112 118.311 235.155 116.843C264.541 75.5089 260.336 68.0205 301.561 67.0281C289.312 106.684 335.082 70.5846 333.612 67.0434C352.838 67.9161 376.292 68.1597 382.083 84.6963C383.145 87.3799 415.437 169.047 415.5 169.207L287.891 189.136L272.002 132.639C252.513 193.397 227.363 162.98 193.711 141.087C191.438 139.607 197.19 97.3447 196.918 96.8094Z" fill="#FFD4DC"/>
<mask id="mask5_33_618" style="mask-type:luminance" maskUnits="userSpaceOnUse" x="193" y="67" width="223" height="123">
<path d="M196.918 96.8094C196.978 96.6961 237.112 118.311 235.155 116.843C264.541 75.5089 260.336 68.0205 301.561 67.0281C289.312 106.684 335.082 70.5846 333.612 67.0434C352.838 67.9161 376.292 68.1597 382.083 84.6963C383.145 87.3799 415.437 169.047 415.5 169.207L287.891 189.136L272.002 132.639C252.513 193.397 227.363 162.98 193.711 141.087C191.438 139.607 197.19 97.3447 196.918 96.8094Z" fill="white"/>
</mask>
<g mask="url(#mask5_33_618)">
<path d="M272.719 159.257C273.238 150.359 271.7 124.923 268.041 116.508C256.524 110.769 267.548 150.762 272.719 159.257Z" fill="#FFBAC7"/>
<path d="M378.519 118.156C370.247 114.114 355.422 111.567 354.836 116.451C353.511 143.991 299.283 170.28 289.113 163.002L411.471 168.503L417.736 152.563L378.519 118.156Z" fill="#FFBAC7"/>
</g>
<path d="M196.918 96.8094C196.978 96.6961 237.112 118.311 235.155 116.843C264.541 75.5089 260.336 68.0205 301.561 67.0281C289.312 106.684 335.082 70.5846 333.612 67.0434C352.838 67.9161 376.292 68.1597 382.083 84.6963C383.145 87.3799 415.437 169.047 415.5 169.207L287.891 189.136L272.002 132.639C252.513 193.397 227.363 162.98 193.711 141.087C191.438 139.607 197.19 97.3447 196.918 96.8094Z" stroke="#020000" stroke-linecap="round" stroke-linejoin="round"/>
<path d="M335.101 164.517C302.787 170.586 289.004 155.82 279.066 167.882C234.971 189.421 300.915 177.929 316.546 178.612C316.891 180.291 332.561 165.907 335.101 164.517Z" fill="white"/>
<mask id="mask6_33_618" style="mask-type:luminance" maskUnits="userSpaceOnUse" x="264" y="162" width="72" height="20">
<path d="M335.101 164.517C302.787 170.586 289.004 155.82 279.066 167.882C234.971 189.421 300.915 177.929 316.546 178.612C316.891 180.291 332.561 165.907 335.101 164.517Z" fill="white"/>
</mask>
<g mask="url(#mask6_33_618)">
<path d="M310.107 172.619L305.093 164.501L299.359 188.039L316.197 184.266L310.107 172.619Z" fill="#EFF1F7"/>
</g>
<path d="M335.101 164.517C302.787 170.586 289.004 155.82 279.066 167.882C234.971 189.421 300.915 177.929 316.546 178.612C316.891 180.291 332.561 165.907 335.101 164.517Z" stroke="#020000" stroke-linecap="round" stroke-linejoin="round"/>
<path d="M356.897 108.256C356.897 108.256 376.517 143.671 374.029 144.108L302.415 158.696C302.415 158.696 305.977 183.304 314.114 191.347C322.25 199.39 370.162 181.144 406.514 181.286C417.611 181.329 428.013 171.344 423.225 161.481C408.457 131.056 405.442 71.9886 362.023 69.7903" fill="#FFD4DC"/>
<mask id="mask7_33_618" style="mask-type:luminance" maskUnits="userSpaceOnUse" x="302" y="69" width="123" height="125">
<path d="M356.897 108.256C356.897 108.256 376.517 143.671 374.029 144.108L302.415 158.696C302.415 158.696 305.977 183.304 314.114 191.347C322.25 199.39 370.162 181.144 406.514 181.286C417.611 181.329 428.013 171.344 423.225 161.481C408.457 131.056 405.442 71.9886 362.023 69.7903" fill="white"/>
</mask>
<g mask="url(#mask7_33_618)">
<path d="M472.997 189.815C469.691 234.863 388.421 230.644 387.421 189.815C390.727 144.768 471.997 148.987 472.997 189.815Z" fill="white" stroke="#020000" stroke-linecap="round" stroke-linejoin="round"/>
<path d="M480.922 189.815C476.951 243.199 380.758 238.396 379.497 189.815C383.467 136.431 479.661 141.235 480.922 189.815Z" stroke="#020000" stroke-linecap="round" stroke-linejoin="round"/>
</g>
<path d="M356.897 108.256C356.897 108.256 376.517 143.671 374.029 144.108L302.415 158.696C302.415 158.696 305.977 183.304 314.114 191.347C322.25 199.39 370.162 181.144 406.514 181.286C417.611 181.329 428.013 171.344 423.225 161.481C408.457 131.056 405.442 71.9886 362.023 69.7903" stroke="#020000" stroke-linecap="round" stroke-linejoin="round"/>
<path d="M255.305 347.079C271.794 413.721 286.882 401.609 219.888 414.541C204.581 417.063 204.828 418.57 203.961 415.718C200.456 407.199 211.783 399.691 235.117 391.904C233.801 386.772 224.11 348.967 224.018 348.607L255.305 347.079Z" fill="white"/>
<mask id="mask8_33_618" style="mask-type:luminance" maskUnits="userSpaceOnUse" x="203" y="347" width="67" height="71">
<path d="M255.305 347.079C271.794 413.721 286.882 401.609 219.888 414.541C204.581 417.063 204.828 418.57 203.961 415.718C200.456 407.199 211.783 399.691 235.117 391.904C233.801 386.772 224.11 348.967 224.018 348.607L255.305 347.079Z" fill="white"/>
</mask>
<g mask="url(#mask8_33_618)">
<path d="M195.755 415.542L273.827 399.175L270.412 411.514L210.676 421.13" fill="white"/>
<path d="M195.755 415.542L273.827 399.175L270.412 411.514L210.676 421.13" stroke="#020000" stroke-linecap="round" stroke-linejoin="round"/>
</g>
<path d="M255.305 347.079C271.794 413.721 286.882 401.609 219.888 414.541C204.581 417.063 204.828 418.57 203.961 415.718C200.456 407.199 211.783 399.691 235.117 391.904C233.801 386.772 224.11 348.967 224.018 348.607L255.305 347.079Z" stroke="#020000" stroke-linecap="round" stroke-linejoin="round"/>
<path d="M340.066 190.769C160.961 217.702 196.582 225.62 210.252 306.242C219.331 343.829 220.349 365.911 225.323 374.81C230.378 383.854 285.261 369.297 291.98 356.416C298.7 343.534 252.442 258.895 252.412 258.732C318.381 258.464 430.853 271.049 387.087 182.96L340.066 190.769Z" fill="white"/>
<mask id="mask9_33_618" style="mask-type:luminance" maskUnits="userSpaceOnUse" x="197" y="182" width="200" height="196">
<path d="M340.066 190.769C160.961 217.702 196.582 225.62 210.252 306.242C219.331 343.829 220.349 365.911 225.323 374.81C230.378 383.854 285.261 369.297 291.98 356.416C298.7 343.534 252.442 258.895 252.412 258.732C318.381 258.464 430.853 271.049 387.087 182.96L340.066 190.769Z" fill="white"/>
</mask>
<g mask="url(#mask9_33_618)">
<path d="M243.359 204.855C378.168 183.701 416.433 231.422 387.168 269.314C357.902 307.206 409.886 203.895 409.886 203.895L325.251 140.192" fill="#ECECEC"/>
<path d="M271.677 378.328C271.677 378.328 233.815 245.489 235.279 247.412C236.743 249.335 375.071 253.444 362.023 194.899" stroke="#020000" stroke-linecap="round" stroke-linejoin="round"/>
<path d="M345.071 200.777C317.42 217.124 347.049 228.674 347.049 228.674" stroke="#020000" stroke-linecap="round" stroke-linejoin="round"/>
</g>
<path d="M340.066 190.769C160.961 217.702 196.582 225.62 210.252 306.242C219.331 343.829 220.349 365.911 225.323 374.81C230.378 383.854 285.261 369.297 291.98 356.416C298.7 343.534 252.442 258.895 252.412 258.732C318.381 258.464 430.853 271.049 387.087 182.96L340.066 190.769Z" stroke="#020000" stroke-linecap="round" stroke-linejoin="round"/>
<path d="M387.166 182.958C387.389 189.57 351.351 189.815 351.351 189.815Z" fill="#214897"/>
<path d="M323.35 33.1145L296.26 13.5693C296.26 13.5693 274.624 49.0274 291.532 55.8232C294.487 57.011 304.407 56.1238 311.171 52.9008" fill="white"/>
<mask id="mask10_33_618" style="mask-type:luminance" maskUnits="userSpaceOnUse" x="285" y="13" width="39" height="44">
<path d="M323.35 33.1145L296.26 13.5693C296.26 13.5693 274.624 49.0274 291.532 55.8232C294.487 57.011 304.407 56.1238 311.171 52.9008" fill="white"/>
</mask>
<g mask="url(#mask10_33_618)">
<path d="M315.29 36.603C309.53 35.7354 308.816 29.1387 308.816 29.1387C308.816 29.1387 303.248 25.9061 302.105 22.6614C298.43 23.4939 294.647 23.7666 290.888 23.47C284.971 22.9332 292.262 17.3727 292.262 17.3727L311.469 15.759L319.043 20.7258" fill="#EFF1F7"/>
</g>
<path d="M323.35 33.1145L296.26 13.5693C296.26 13.5693 274.624 49.0274 291.532 55.8232C294.487 57.011 304.407 56.1238 311.171 52.9008" stroke="#020000" stroke-linecap="round" stroke-linejoin="round"/>
<path d="M293.201 5.73975C293.532 5.41328 293.863 5.41328 294.195 5.08682C294.857 4.43389 294.526 4.10742 295.52 3.45449C296.514 2.80156 297.151 2.83171 297.84 2.14862C298.528 1.46553 299.237 1.48814 300.159 1.16922C301.081 0.850309 302.833 1.06012 303.804 1.16922C305.792 1.16922 306.087 0.939801 307.78 1.49571C308.774 1.82216 308.111 1.49457 310.431 2.14865C311.756 2.47512 311.094 2.47512 312.088 2.47512C313.182 2.47512 312.75 2.47512 313.413 2.47511C314.407 2.47512 313.614 2.47509 314.738 2.47511C315.401 2.47512 315.07 2.47512 315.732 2.47513C316.426 2.47515 316.064 2.47512 317.058 2.4751C317.721 2.47512 318.715 2.47512 319.377 2.47512C319.442 2.47324 319.975 2.47512 320.04 2.47512C321.455 2.47609 321.895 2.61081 323.022 3.45451C324.149 4.29822 324.016 4.10745 325.342 4.43391C326.336 5.08685 325.673 4.76038 326.667 5.41331C326.998 6.06625 328.096 6.58152 328.655 6.71918C329.539 6.99922 329.318 7.04564 330.27 7.56486C330.955 8.18161 331.498 8.9365 331.861 9.77824C332.963 12.2691 333.294 13.575 333.294 15.8602C333.957 19.1249 334.008 20.5401 334.294 22.3896C334.378 22.9309 334.288 23.0425 334.619 24.3484C334.711 24.7097 334.951 25.1735 334.951 25.9807C334.951 27.613 334.951 26.9601 334.951 28.266C334.951 29.2454 334.951 28.5924 334.951 29.8983C334.951 30.5512 334.951 29.8983 334.619 31.5306C334.467 32.2837 334.288 32.1835 333.625 33.8159C332.963 35.1217 333.294 34.4688 332.631 35.4482C332.118 36.6224 330.979 39.2025 329.981 40.0187C328.982 40.835 326.939 45.9828 325.673 46.2629C324.407 46.543 324.217 46.58 322.96 46.2629C321.703 45.9457 320.54 45.3398 319.566 44.4946C317.947 43.9925 316.593 42.8849 315.794 41.4098C314.995 39.9346 314.815 38.2095 315.292 36.6049C314.426 36.4069 313.61 36.0354 312.895 35.5134C312.18 34.9915 311.582 34.3303 311.137 33.571C310.693 32.8116 310.431 32.8365 310.099 32.1835C309.437 31.2041 308.443 29.8983 308.443 29.8983C307.117 28.266 306.615 27.4618 305.211 26.0033C303.806 24.5448 304.135 24.3484 303.141 22.716C302.147 22.3896 300.778 21.8189 299.548 22.0272C298.318 22.2355 297.056 22.1634 295.858 21.8164C294.816 22.5926 293.602 23.1135 292.315 23.336C291.028 23.5585 290.55 20.1043 290.55 18.7984C290.55 15.5337 290.55 15.2073 290.881 14.5543C291.102 14.1195 291.213 13.2485 291.875 11.9426C292.207 10.9632 291.875 9.98381 292.207 9.33088C292.408 8.93371 292.207 8.67794 292.538 8.02501C292.869 7.37208 292.85 7.08422 292.869 7.04561C292.889 7.007 292.869 6.06622 293.201 5.73975Z" fill="#020000" stroke="#020000" stroke-linecap="round" stroke-linejoin="round"/>
<path d="M317.412 46.5142C318.827 46.5156 320.211 46.1035 321.388 45.33C322.565 44.5564 323.483 43.4562 324.026 42.1685C324.569 40.8808 324.711 39.4635 324.436 38.0959C324.161 36.7283 323.48 35.4718 322.48 34.4854C321.48 33.499 320.205 32.8271 318.818 32.5545C317.43 32.282 315.991 32.4212 314.684 32.9544C313.376 33.4876 312.259 34.3909 311.472 35.5501C310.686 36.7093 310.266 38.0722 310.266 39.4664" fill="white"/>
<path d="M317.412 46.5142C318.827 46.5156 320.211 46.1035 321.388 45.33C322.565 44.5564 323.483 43.4562 324.026 42.1685C324.569 40.8808 324.711 39.4635 324.436 38.0959C324.161 36.7283 323.48 35.4718 322.48 34.4854C321.48 33.499 320.205 32.8271 318.818 32.5545C317.43 32.282 315.991 32.4212 314.684 32.9544C313.376 33.4876 312.259 34.3909 311.472 35.5501C310.686 36.7093 310.266 38.0722 310.266 39.4664" stroke="#020000" stroke-linecap="round" stroke-linejoin="round"/>
<path d="M293.43 29.0411L292.367 32.0993C292.019 33.0979 292.559 34.1847 293.573 34.5269C294.586 34.8691 295.689 34.337 296.037 33.3384L297.1 30.2802C297.448 29.2816 296.908 28.1948 295.894 27.8526C294.881 27.5104 293.778 28.0425 293.43 29.0411Z" fill="#020000"/>
<path d="M291.484 29.629C288.842 36.8478 296.311 39.3335 299.274 32.7996C301.914 25.5817 294.447 23.0954 291.484 29.629Z" fill="white"/>
<mask id="mask11_33_618" style="mask-type:luminance" maskUnits="userSpaceOnUse" x="290" y="25" width="10" height="12">
<path d="M291.484 29.629C288.842 36.8478 296.311 39.3335 299.274 32.7996C301.914 25.5817 294.447 23.0954 291.484 29.629Z" fill="white"/>
</mask>
<g mask="url(#mask11_33_618)">
<path d="M290.549 29.7528C289.453 33.2844 293.157 34.8578 294.667 31.086C295.763 27.5545 292.059 25.9814 290.549 29.7528Z" fill="#020000"/>
</g>
<path d="M290.061 28.6976C285.556 31.4506 282.595 31.3645 282.063 32.8753C281.531 34.3862 283.928 37.8823 287.652 38.8473" fill="white"/>
<path d="M290.061 28.6976C285.556 31.4506 282.595 31.3645 282.063 32.8753C281.531 34.3862 283.928 37.8823 287.652 38.8473" stroke="#020000" stroke-linecap="round" stroke-linejoin="round"/>
<path d="M296.361 21.2467C301.988 22.8756 302.435 25.5583 298.85 24.7662C295.265 23.974 292.685 20.1824 296.361 21.2467Z" fill="#020000"/>
<path d="M307.283 38.4947C307.572 36.7438 305.855 35.0117 303.447 34.6258C301.039 34.24 298.853 35.3466 298.564 37.0975C298.275 38.8484 299.993 40.5806 302.4 40.9664C304.808 41.3522 306.994 40.2456 307.283 38.4947Z" fill="#EFF1F7"/>
<path d="M296.585 41.5808C295.616 42.3874 294.444 42.9225 293.193 43.1303C291.942 43.338 290.658 43.2106 289.474 42.7616" stroke="#020000" stroke-linecap="round" stroke-linejoin="round"/>
<path d="M315.78 37.7571C315.957 37.5471 316.178 37.3783 316.429 37.263C316.679 37.1477 316.953 37.0888 317.23 37.0904C317.506 37.0921 317.779 37.1544 318.028 37.2727C318.277 37.391 318.497 37.5624 318.671 37.7746C318.844 37.9867 318.968 38.2342 319.032 38.4992C319.097 38.7642 319.101 39.0401 319.044 39.3068C318.987 39.5736 318.871 39.8245 318.704 40.0415C318.536 40.2585 318.322 40.4361 318.076 40.5614" stroke="#020000" stroke-linecap="round" stroke-linejoin="round"/>
<path d="M131.673 157.957H241.47C242.416 157.957 243.349 157.741 244.197 157.328C245.044 156.914 245.784 156.313 246.357 155.572C246.93 154.831 247.322 153.969 247.501 153.054C247.681 152.139 247.644 151.196 247.393 150.297L229.309 85.6002C228.952 84.3242 228.18 83.1987 227.112 82.3967C226.043 81.5946 224.737 81.1602 223.394 81.1602H113.702C112.743 81.1602 111.797 81.3783 110.938 81.7977C110.079 82.217 109.329 82.8261 108.748 83.5777C108.167 84.3292 107.77 85.2028 107.588 86.1304C107.405 87.058 107.443 88.0145 107.698 88.9253L125.75 153.511C126.107 154.789 126.88 155.916 127.95 156.719C129.02 157.522 130.328 157.957 131.673 157.957Z" fill="white"/>
<mask id="mask12_33_618" style="mask-type:luminance" maskUnits="userSpaceOnUse" x="107" y="81" width="141" height="77">
<path d="M131.673 157.957H241.47C242.416 157.957 243.349 157.741 244.197 157.328C245.044 156.914 245.784 156.313 246.357 155.572C246.93 154.831 247.322 153.969 247.501 153.054C247.681 152.139 247.644 151.196 247.393 150.297L229.309 85.6002C228.952 84.3242 228.18 83.1987 227.112 82.3967C226.043 81.5946 224.737 81.1602 223.394 81.1602H113.702C112.743 81.1602 111.797 81.3783 110.938 81.7977C110.079 82.217 109.329 82.8261 108.748 83.5777C108.167 84.3292 107.77 85.2028 107.588 86.1304C107.405 87.058 107.443 88.0145 107.698 88.9253L125.75 153.511C126.107 154.789 126.88 155.916 127.95 156.719C129.02 157.522 130.328 157.957 131.673 157.957Z" fill="white"/>
</mask>
<g mask="url(#mask12_33_618)">
<path d="M197.651 160.658L189.657 141.61L176.823 162.813L199.838 161.42" fill="#EFF1F7"/>
<path d="M230.58 90.144C247.535 159.04 192.232 157.957 167.509 157.437C142.785 156.917 261.198 175.706 261.198 175.706L257.943 116.09" fill="#EFF1F7"/>
</g>
<path d="M131.673 157.957H241.47C242.416 157.957 243.349 157.741 244.197 157.328C245.044 156.914 245.784 156.313 246.357 155.572C246.93 154.831 247.322 153.969 247.501 153.054C247.681 152.139 247.644 151.196 247.393 150.297L229.309 85.6002C228.952 84.3242 228.18 83.1987 227.112 82.3967C226.043 81.5946 224.737 81.1602 223.394 81.1602H113.702C112.743 81.1602 111.797 81.3783 110.938 81.7977C110.079 82.217 109.329 82.8261 108.748 83.5777C108.167 84.3292 107.77 85.2028 107.588 86.1304C107.405 87.058 107.443 88.0145 107.698 88.9253L125.75 153.511C126.107 154.789 126.88 155.916 127.95 156.719C129.02 157.522 130.328 157.957 131.673 157.957Z" stroke="#020000" stroke-linecap="round" stroke-linejoin="round"/>
<path d="M178.691 113.165C180.505 110.446 179.031 106.334 175.397 103.981C171.764 101.628 167.348 101.926 165.534 104.645C163.72 107.365 165.194 111.477 168.828 113.83C172.461 116.182 176.877 115.885 178.691 113.165Z" fill="white" stroke="#020000" stroke-linecap="round" stroke-linejoin="round"/>
<path d="M189.657 141.61L178.054 181.233H150.076L164.579 141.61H189.657Z" fill="white"/>
<mask id="mask13_33_618" style="mask-type:luminance" maskUnits="userSpaceOnUse" x="150" y="141" width="40" height="41">
<path d="M189.657 141.61L178.054 181.233H150.076L164.579 141.61H189.657Z" fill="white"/>
</mask>
<g mask="url(#mask13_33_618)">
<path d="M146.036 179.36C178.981 178.067 179.703 169.351 183.202 163.653C186.7 157.956 188.327 179.36 188.327 179.36L177.543 188.325L137.904 182.729" fill="#ECECEC"/>
</g>
<path d="M189.657 141.61L178.054 181.233H150.076L164.579 141.61H189.657Z" stroke="#020000" stroke-linecap="round" stroke-linejoin="round"/>
<path d="M120.945 182.792H224.803V179.36H120.945V182.792Z" fill="white" stroke="#020000" stroke-linecap="round" stroke-linejoin="round"/>
<path d="M138.177 109.146C138.686 112.552 140.296 115.706 142.768 118.14" stroke="#020000" stroke-linecap="round" stroke-linejoin="round"/>
<path d="M98.2125 122.424L95.9502 121.779L84.7849 159.789L87.0473 160.434L98.2125 122.424Z" fill="white" stroke="#020000" stroke-linecap="round" stroke-linejoin="round"/>
<path d="M93.447 184.644H74.4083L70.1321 142.662H97.7259L93.447 184.644Z" fill="white"/>
<mask id="mask14_33_618" style="mask-type:luminance" maskUnits="userSpaceOnUse" x="70" y="142" width="28" height="43">
<path d="M93.447 184.644H74.4083L70.1321 142.662H97.7259L93.447 184.644Z" fill="white"/>
</mask>
<g mask="url(#mask14_33_618)">
<path d="M70.1315 144.87C59.3421 154.392 93.9874 144.055 93.7436 154.151C93.4998 164.248 94.0089 178.192 71.4299 181.076C48.851 183.959 82.4084 191.651 83.9282 191.892C85.448 192.132 113.262 167.132 113.262 167.132L106.919 144.87L74.9574 142.373" fill="#EFF1F7"/>
</g>
<path d="M93.447 184.644H74.4083L70.1321 142.662H97.7259L93.447 184.644Z" stroke="#020000" stroke-linecap="round" stroke-linejoin="round"/>
<path d="M98.1054 141.127H69.3793C68.8838 141.127 68.3987 141.268 67.9821 141.532C67.5655 141.797 67.235 142.174 67.0301 142.618L65.9229 145.022C65.7445 145.409 65.6675 145.834 65.699 146.258C65.7305 146.682 65.8695 147.092 66.1032 147.449C66.337 147.807 66.658 148.101 67.0369 148.304C67.4158 148.508 67.8405 148.615 68.2721 148.615H99.3602C99.8023 148.614 100.237 148.502 100.622 148.289C101.008 148.076 101.331 147.769 101.562 147.397C101.792 147.025 101.921 146.601 101.938 146.166C101.954 145.731 101.856 145.299 101.654 144.911L100.4 142.508C100.183 142.092 99.8542 141.743 99.4494 141.5C99.0447 141.256 98.5797 141.128 98.1054 141.127Z" fill="white" stroke="#020000" stroke-linecap="round" stroke-linejoin="round"/>
<path d="M540.45 418.109L452.074 190.639L369.192 418.075C360.261 421.137 454.138 182.632 451.99 182.375C450.624 185.54 549.201 419.097 540.45 418.109Z" fill="white" stroke="#020000" stroke-linecap="round" stroke-linejoin="round"/>
<path d="M515.191 180.096H15.8748V194.899H515.191V180.096Z" fill="white"/>
<mask id="mask15_33_618" style="mask-type:luminance" maskUnits="userSpaceOnUse" x="15" y="180" width="501" height="15">
<path d="M515.191 180.096H15.8748V194.899H515.191V180.096Z" fill="white"/>
</mask>
<g mask="url(#mask15_33_618)">
<path d="M-22.8535 180.556C71.0301 227.072 217.221 171.051 340.066 190.769C462.912 210.486 526.592 180.556 526.592 180.556L529.52 203.455L-12.1191 230.585L-19.9255 171.348" fill="#EFF1F7"/>
</g>
<path d="M515.191 180.096H15.8748V194.899H515.191V180.096Z" stroke="#020000" stroke-linecap="round" stroke-linejoin="round"/>
<path d="M316.252 90.521C315.279 89.1383 314.037 87.9592 312.599 87.0518C311.16 86.1445 309.553 85.5268 307.871 85.2344L331.082 56.5472L337.921 67.3566L316.252 90.521Z" fill="white" stroke="#020000" stroke-linecap="round" stroke-linejoin="round"/>
<path d="M300.666 91.6427C301.121 90.0084 302.041 88.5364 303.318 87.4008C304.595 86.2651 306.175 85.5131 307.871 85.2336L301.097 59.9119C288.85 69.2372 300.006 83.6755 300.666 91.6427Z" fill="white" stroke="#020000" stroke-linecap="round" stroke-linejoin="round"/>
<path d="M266.997 113.918L275.049 143.472" stroke="#020000" stroke-linecap="round" stroke-linejoin="round"/>
<path d="M310.479 95.6092C310.557 99.6104 302.347 96.3456 308.286 93.4468C308.983 93.5479 309.643 93.6435 310.479 95.6092Z" fill="white" stroke="#020000" stroke-linecap="round" stroke-linejoin="round"/>
<path d="M311.316 114.587C311.393 118.588 303.183 115.323 309.122 112.425C309.82 112.528 310.479 112.622 311.316 114.587Z" fill="white" stroke="#020000" stroke-linecap="round" stroke-linejoin="round"/>
<path d="M351.351 109.111H329.456V112.427H351.351V109.111Z" fill="white" stroke="#020000" stroke-linecap="round" stroke-linejoin="round"/>
<path d="M374.417 144.071L377.015 147.13" stroke="#020000" stroke-linecap="round" stroke-linejoin="round"/>
<path d="M286.246 137.759C286.285 138.423 286.474 139.071 286.801 139.653C287.128 140.236 287.584 140.738 288.134 141.124C288.685 141.509 289.317 141.768 289.982 141.88C290.648 141.993 291.331 141.956 291.981 141.773" stroke="#020000" stroke-linecap="round" stroke-linejoin="round"/>
<path d="M253.549 259.371C250.996 258.309 248.657 256.807 246.641 254.933" stroke="#020000" stroke-linecap="round" stroke-linejoin="round"/>
<path d="M433.901 186.316L427.804 187.317" stroke="#020000" stroke-linecap="round" stroke-linejoin="round"/>
<path d="M315.636 71.9886L313.726 73.4842" stroke="#020000" stroke-linecap="round" stroke-linejoin="round"/>
<path d="M368.309 94.7216C366.461 96.6542 364.93 98.8582 363.77 101.254" stroke="#020000" stroke-linecap="round" stroke-linejoin="round"/>
<path d="M289.579 215.381C287.752 217.288 286.669 219.77 286.521 222.388" stroke="#020000" stroke-linecap="round" stroke-linejoin="round"/>
<path d="M138.231 281.437L139.266 284.434" stroke="#020000" stroke-linecap="round" stroke-linejoin="round"/>
</svg>
