<svg width="668" height="662" viewBox="0 0 668 662" fill="none" xmlns="http://www.w3.org/2000/svg">
<path d="M109.488 116.377C109.946 108.068 112.55 100.017 117.046 93.0069C121.542 85.9964 127.779 80.2639 135.151 76.3652C142.523 72.4665 150.78 70.5342 159.121 70.7554C167.463 70.9766 175.605 73.3441 182.759 77.628L220.328 100.028L223.011 43.4747C223.383 35.7189 225.744 28.188 229.868 21.6024C233.993 15.0168 239.742 9.59668 246.567 5.86056C253.392 2.12443 261.064 0.197299 268.849 0.263362C276.634 0.329425 284.272 2.38646 291.032 6.23787C304.667 14.0134 315.982 25.2684 323.815 38.8471C331.647 52.4259 335.715 67.8392 335.601 83.5043L345.577 318.911C297.449 287.143 248.621 256.423 201.018 223.957C161.582 197.135 106.396 171.767 109.488 116.377Z" fill="#FFC3E3"/>
<path d="M393.182 11.9982C400.499 8.00148 408.728 5.95612 417.07 6.05991C425.413 6.16371 433.587 8.41318 440.803 12.5907C448.019 16.7682 454.031 22.7325 458.259 29.9063C462.486 37.0801 464.786 45.2207 464.936 53.5406L465.694 97.2358L515.28 69.5991C522.072 65.8067 529.728 63.8179 537.512 63.8234C545.296 63.829 552.948 65.8285 559.734 69.6305C566.521 73.4325 572.215 78.9094 576.27 85.5363C580.325 92.1631 582.605 99.7176 582.892 107.476C583.465 123.098 579.867 138.591 572.466 152.371C565.066 166.151 554.129 177.724 540.773 185.906L345.695 318.737C347.27 261.252 347.679 203.652 350.129 146.167C352.054 98.6322 344.412 38.6458 393.182 11.9982Z" fill="#FFC3E3"/>
<path d="M641.171 223.841C648.105 228.469 653.722 234.805 657.478 242.236C661.234 249.666 663.001 257.939 662.608 266.251C662.215 274.563 659.675 282.633 655.234 289.678C650.793 296.723 644.602 302.504 637.262 306.46L599.11 327.289L646.537 358.417C653.035 362.687 658.326 368.548 661.905 375.439C665.484 382.331 667.231 390.023 666.979 397.779C666.727 405.536 664.486 413.099 660.467 419.745C656.449 426.392 650.79 431.899 644.029 435.742C630.376 443.49 614.9 447.472 599.193 447.278C583.485 447.083 568.113 442.72 554.657 434.636L346.453 323.275C398.315 298.14 449.709 271.958 501.979 247.637C544.915 227.506 594.909 192.946 641.171 223.841Z" fill="#FFC3E3"/>
<path d="M569.12 540.063C568.176 548.378 565.081 556.304 560.14 563.067C555.199 569.829 548.581 575.195 540.935 578.639C533.289 582.082 524.876 583.485 516.523 582.71C508.169 581.935 500.161 579.008 493.283 574.216L457.23 549.489L450.988 605.81C450.128 613.501 447.308 620.846 442.795 627.142C438.283 633.439 432.229 638.478 425.21 641.78C418.192 645.081 410.442 646.536 402.701 646.004C394.959 645.472 387.483 642.971 380.984 638.741C367.859 630.135 357.266 618.199 350.295 604.16C343.323 590.121 340.224 574.485 341.315 558.856L346.041 323.275C392.068 358.184 438.855 391.698 484.357 427.015C522.101 456.222 575.771 484.964 569.12 540.063Z" fill="#FFC3E3"/>
<path d="M269.737 624.369C262.082 627.635 253.712 628.878 245.435 627.976C237.159 627.075 229.255 624.06 222.487 619.223C215.72 614.386 210.317 607.89 206.801 600.363C203.285 592.836 201.775 584.532 202.416 576.252L205.799 532.732L153.822 555.598C146.707 558.755 138.899 560.039 131.144 559.325C123.39 558.612 115.948 555.926 109.533 551.524C103.117 547.122 97.9416 541.151 94.5014 534.183C91.0612 527.216 89.4714 519.484 89.8843 511.728C90.7842 496.081 95.8398 480.954 104.533 467.898C113.226 454.842 125.243 444.326 139.354 437.429L346.158 323.507C339.099 380.643 333.324 437.894 325.448 494.913C319.089 541.75 320.84 602.434 269.737 624.369Z" fill="#FFC3E3"/>
<path d="M49.4569 417.705C42.5976 412.962 37.0841 406.531 33.4517 399.036C29.8192 391.541 28.1912 383.236 28.7254 374.929C29.2595 366.621 31.9378 358.592 36.5004 351.622C41.063 344.651 47.355 338.975 54.7656 335.144L93.6179 315.013L46.6567 283.071C40.2349 278.689 35.0472 272.738 31.589 265.786C28.1307 258.834 26.5175 251.114 26.9038 243.363C27.29 235.612 29.6626 228.09 33.7949 221.514C37.9272 214.938 43.6811 209.53 50.5069 205.804C64.2954 198.288 79.8419 194.569 95.5488 195.029C111.256 195.489 126.556 200.112 139.879 208.422L346.158 323.275C293.655 347.537 241.968 372.905 189.29 396.352C145.771 415.727 95.1346 449.356 49.4569 417.705Z" fill="#FFC3E3"/>
<path d="M278.892 29.1623C284.539 23.0364 291.675 18.4678 299.611 15.8985C307.547 13.3292 316.013 12.8461 324.191 14.4961C332.369 16.1461 339.982 19.8732 346.292 25.3169C352.603 30.7606 357.398 37.7365 360.213 45.5698L374.914 86.7049L413.066 44.6971C418.281 38.9405 424.891 34.6152 432.262 32.1357C439.633 29.6562 447.519 29.1054 455.165 30.5359C462.81 31.9664 469.96 35.3303 475.929 40.3057C481.897 45.2811 486.485 51.7013 489.254 58.9517C494.85 73.5974 496.438 89.4646 493.855 104.924C491.271 120.384 484.61 134.88 474.553 146.924L332.387 335.144C315.411 280.104 297.385 225.47 281.167 170.197C267.808 124.582 241.265 70.0065 278.892 29.1623Z" fill="#FD56A6"/>
<path d="M564.572 128.131C572.779 129.655 580.453 133.268 586.849 138.618C593.246 143.969 598.148 150.877 601.082 158.672C604.016 166.467 604.882 174.886 603.595 183.113C602.309 191.34 598.915 199.096 593.74 205.63L566.497 239.841L622.442 249.907C630.105 251.278 637.286 254.589 643.297 259.524C649.309 264.458 653.948 270.85 656.771 278.087C659.593 285.323 660.504 293.161 659.417 300.85C658.329 308.539 655.28 315.82 650.56 321.995C641.059 334.469 628.4 344.197 613.883 350.178C599.366 356.16 583.514 358.18 567.955 356.032L332.625 335.144C370.486 291.682 407.413 247.463 445.915 204.583C477.475 169.208 509.91 117.833 564.572 128.131Z" fill="#FD56A6"/>
<path d="M621.33 448.775C623.741 456.743 624.048 465.198 622.222 473.32C620.396 481.441 616.499 488.955 610.908 495.135C605.317 501.314 598.221 505.949 590.307 508.591C582.393 511.233 573.93 511.793 565.735 510.216L522.741 501.896L539.6 556.005C541.891 563.42 542.24 571.296 540.615 578.883C538.989 586.47 535.443 593.516 530.314 599.349C525.185 605.182 518.644 609.608 511.313 612.206C503.983 614.803 496.109 615.486 488.439 614.188C472.951 611.524 458.454 604.795 446.438 594.692C434.422 584.589 425.32 571.477 420.068 556.704L330.055 338.868C386.175 352.308 442.528 364.585 498.473 378.898C544.617 390.651 605.229 395.654 621.33 448.775Z" fill="#FD56A6"/>
<path d="M364.36 647.584C358.341 653.38 350.92 657.522 342.82 659.61C334.72 661.698 326.216 661.659 318.135 659.498C310.054 657.336 302.672 653.126 296.706 647.276C290.74 641.427 286.393 634.136 284.089 626.115L272.422 584.165L231.586 623.729C226.027 629.191 219.153 633.133 211.624 635.176C204.095 637.219 196.165 637.295 188.599 635.395C181.032 633.495 174.083 629.684 168.422 624.329C162.76 618.974 158.576 612.256 156.273 604.82C151.596 589.858 151.001 573.923 154.549 558.656C158.097 543.388 165.659 529.339 176.457 517.954L330.058 338.926C343.592 394.897 358.235 450.52 370.894 506.666C381.395 552.98 404.496 609.126 364.36 647.584Z" fill="#FD56A6"/>
<path d="M79.385 523.365C71.3644 521.057 64.0774 516.722 58.2297 510.781C52.382 504.839 48.1717 497.492 46.0066 489.451C43.8414 481.411 43.7948 472.949 45.8713 464.884C47.9477 456.82 52.0768 449.428 57.8587 443.423L88.1939 411.946L33.2406 396.469C25.7406 394.384 18.9036 390.412 13.3853 384.934C7.86699 379.455 3.85248 372.655 1.72667 365.185C-0.399136 357.714 -0.564916 349.825 1.24528 342.272C3.05548 334.72 6.78093 327.757 12.0643 322.054C22.7065 310.531 36.2303 302.039 51.2486 297.448C66.267 292.857 82.2393 292.333 97.5276 295.93L329.825 338.868C288.055 378.549 247.103 419.102 204.692 458.201C169.982 490.434 132.821 538.493 79.385 523.365Z" fill="#FD56A6"/>
<path d="M40.7072 223.958C38.436 215.945 38.2781 207.483 40.2488 199.392C42.2194 191.301 46.2517 183.854 51.9553 177.773C57.6588 171.693 64.8402 167.184 72.8038 164.685C80.7674 162.185 89.2434 161.779 97.4105 163.506L140.288 172.582L124.362 118.182C122.175 110.729 121.943 102.842 123.691 95.275C125.438 87.7081 129.105 80.7158 134.34 74.9686C139.576 69.2215 146.204 64.9122 153.589 62.4539C160.974 59.9957 168.868 59.4708 176.515 60.9299C191.947 63.8578 206.321 70.8272 218.161 81.1232C230.002 91.4191 238.883 104.671 243.894 119.52L330.116 338.868C274.229 324.439 218.109 311.231 162.456 295.988C116.428 283.42 55.8747 277.369 40.7072 223.958Z" fill="#FD56A6"/>
<path d="M291.573 78.9075C296.351 73.7262 302.388 69.8621 309.102 67.689C315.815 65.5159 322.978 65.1073 329.896 66.5029C336.815 67.8984 343.255 71.0508 348.594 75.655C353.932 80.2593 357.989 86.1595 360.371 92.7849L372.808 127.577L405.084 92.0468C409.496 87.1778 415.088 83.5195 421.324 81.4224C427.559 79.3252 434.231 78.8593 440.699 80.0692C447.167 81.2792 453.216 84.1244 458.265 88.3325C463.315 92.5407 467.196 97.9709 469.538 104.103C474.273 116.49 475.616 129.911 473.431 142.987C471.245 156.063 465.609 168.323 457.102 178.51L336.83 337.706C322.468 291.153 307.218 244.944 293.498 198.194C282.196 159.613 259.741 113.453 291.573 78.9075Z" fill="#FFC3E3"/>
<path d="M533.441 163.453C540.383 164.733 546.874 167.768 552.284 172.263C557.694 176.758 561.841 182.56 564.323 189.109C566.804 195.657 567.537 202.729 566.449 209.64C565.361 216.551 562.489 223.067 558.113 228.556L535.07 257.295L582.39 265.751C588.871 266.903 594.945 269.684 600.03 273.83C605.114 277.975 609.038 283.344 611.426 289.423C613.813 295.502 614.584 302.087 613.664 308.546C612.744 315.005 610.165 321.121 606.173 326.309C598.136 336.788 587.429 344.959 575.15 349.984C562.871 355.009 549.463 356.706 536.303 354.901L337.254 337.355C369.277 300.844 400.511 263.698 433.078 227.676C459.772 197.959 487.207 154.802 533.441 163.453Z" fill="#FFC3E3"/>
<path d="M581.273 433.941C583.312 440.658 583.572 447.786 582.028 454.633C580.483 461.48 577.186 467.814 572.456 473.023C567.726 478.233 561.723 482.14 555.029 484.367C548.334 486.595 541.174 487.067 534.242 485.737L497.871 478.723L512.133 524.34C514.071 530.59 514.367 537.23 512.992 543.627C511.616 550.023 508.616 555.963 504.277 560.88C499.938 565.798 494.405 569.529 488.204 571.719C482.003 573.909 475.341 574.484 468.853 573.39C455.751 571.144 443.487 565.471 433.322 556.954C423.157 548.437 415.457 537.383 411.015 524.928L334.867 341.285C382.342 352.616 430.014 362.965 477.341 375.032C516.377 384.94 567.652 389.158 581.273 433.941Z" fill="#FFC3E3"/>
<path d="M363.42 601.85C358.344 606.742 352.085 610.24 345.253 612.002C338.422 613.764 331.25 613.732 324.435 611.907C317.619 610.083 311.393 606.528 306.362 601.59C301.33 596.652 297.664 590.498 295.721 583.726L285.881 548.313L251.44 581.712C246.752 586.323 240.954 589.651 234.605 591.375C228.255 593.1 221.567 593.164 215.186 591.56C208.804 589.956 202.944 586.739 198.169 582.218C193.394 577.698 189.865 572.026 187.923 565.749C183.979 553.118 183.477 539.667 186.469 526.778C189.461 513.889 195.838 502.029 204.946 492.418L334.49 341.285C345.905 388.536 358.254 435.491 368.931 482.889C377.787 521.986 397.27 569.384 363.42 601.85Z" fill="#FFC3E3"/>
<path d="M122.889 496.354C116.1 494.413 109.932 490.768 104.983 485.771C100.033 480.775 96.4693 474.596 94.6366 467.834C92.804 461.072 92.7645 453.956 94.5221 447.175C96.2796 440.393 99.7746 434.176 104.669 429.126L130.345 402.656L83.8311 389.641C77.4829 387.887 71.6959 384.547 67.025 379.94C62.3542 375.333 58.9562 369.614 57.1568 363.332C55.3575 357.05 55.2172 350.415 56.7494 344.063C58.2816 337.712 61.4349 331.857 65.9069 327.061C74.9148 317.37 86.3617 310.229 99.0737 306.368C111.786 302.508 125.305 302.067 138.246 305.092L334.868 341.201C299.514 374.571 264.851 408.674 228.953 441.554C199.573 468.661 168.119 509.076 122.889 496.354Z" fill="#FFC3E3"/>
<path d="M90.6405 243.904C88.7239 237.114 88.5907 229.943 90.2537 223.086C91.9166 216.229 95.3194 209.918 100.132 204.765C104.946 199.612 111.006 195.791 117.726 193.673C124.446 191.555 131.599 191.21 138.491 192.674L174.674 200.366L161.235 154.264C159.389 147.948 159.194 141.264 160.668 134.852C162.143 128.439 165.237 122.513 169.655 117.643C174.073 112.772 179.667 109.12 185.899 107.037C192.131 104.954 198.793 104.509 205.246 105.746C218.268 108.227 230.398 114.133 240.39 122.859C250.381 131.584 257.876 142.814 262.105 155.398L334.865 341.285C287.704 329.057 240.346 317.864 193.381 304.946C154.54 294.296 103.44 289.168 90.6405 243.904Z" fill="#FFC3E3"/>
<path d="M415.987 349.69C417.869 339.104 417.641 328.251 415.317 317.753C412.993 307.255 408.618 297.316 402.443 288.504C396.267 279.692 388.412 272.179 379.325 266.395C370.238 260.611 360.098 256.669 349.483 254.794C338.868 252.91 327.985 253.131 317.456 255.446C306.927 257.76 296.959 262.123 288.121 268.283C279.284 274.444 271.752 282.281 265.954 291.348C260.157 300.415 256.209 310.532 254.336 321.122C250.535 342.493 255.4 364.495 267.86 382.291C280.32 400.086 299.356 412.217 320.782 416.018C342.225 419.808 364.3 414.951 382.153 402.513C400.006 390.075 412.176 371.075 415.987 349.69Z" fill="#FD56A6"/>
<circle cx="301.458" cy="330.548" r="9.54438" fill="#FFC3E3"/>
<circle cx="362.306" cy="311.459" r="9.54438" fill="#FFC3E3"/>
<ellipse cx="312.796" cy="371.111" rx="8.94786" ry="9.54438" fill="#FFC3E3"/>
<ellipse cx="327.113" cy="286.405" rx="6.56176" ry="7.15829" fill="#FFC3E3"/>
<ellipse cx="373.639" cy="352.022" rx="8.94786" ry="9.54438" fill="#FFC3E3"/>
<circle cx="331.287" cy="336.513" r="9.54438" fill="#FFC3E3"/>
<circle cx="392.13" cy="317.424" r="9.54438" fill="#FFC3E3"/>
</svg>
